<mxfile host="app.diagrams.net" agent="Mozilla/5.0 (Windows NT 10.0; Win64; x64) AppleWebKit/537.36 (KHTML, like Gecko) Chrome/134.0.0.0 Safari/537.36 OPR/119.0.0.0" version="27.2.0">
  <diagram name="Página-1" id="m1e7Van6qy0bm5J_g41m">
    <mxGraphModel dx="2212" dy="796" grid="1" gridSize="10" guides="1" tooltips="1" connect="1" arrows="1" fold="1" page="1" pageScale="1" pageWidth="827" pageHeight="1169" math="0" shadow="0">
      <root>
        <mxCell id="0" />
        <mxCell id="1" parent="0" />
        <mxCell id="3cb6sZNOvw4URRTZMDJZ-5" value="Fabricante" style="rounded=0;whiteSpace=wrap;html=1;" vertex="1" parent="1">
          <mxGeometry x="560" y="455" width="120" height="60" as="geometry" />
        </mxCell>
        <mxCell id="3cb6sZNOvw4URRTZMDJZ-32" value="" style="edgeStyle=orthogonalEdgeStyle;rounded=0;orthogonalLoop=1;jettySize=auto;html=1;" edge="1" parent="1" source="3cb6sZNOvw4URRTZMDJZ-6" target="3cb6sZNOvw4URRTZMDJZ-28">
          <mxGeometry relative="1" as="geometry" />
        </mxCell>
        <mxCell id="3cb6sZNOvw4URRTZMDJZ-54" value="N:M" style="edgeLabel;html=1;align=center;verticalAlign=middle;resizable=0;points=[];" vertex="1" connectable="0" parent="3cb6sZNOvw4URRTZMDJZ-32">
          <mxGeometry x="-0.16" relative="1" as="geometry">
            <mxPoint as="offset" />
          </mxGeometry>
        </mxCell>
        <mxCell id="3cb6sZNOvw4URRTZMDJZ-6" value="Ensamblan" style="rhombus;whiteSpace=wrap;html=1;" vertex="1" parent="1">
          <mxGeometry x="390" y="445" width="80" height="80" as="geometry" />
        </mxCell>
        <mxCell id="3cb6sZNOvw4URRTZMDJZ-12" value="" style="endArrow=classic;html=1;rounded=0;entryX=1;entryY=0.5;entryDx=0;entryDy=0;exitX=0;exitY=0.5;exitDx=0;exitDy=0;edgeStyle=orthogonalEdgeStyle;" edge="1" parent="1" source="3cb6sZNOvw4URRTZMDJZ-5" target="3cb6sZNOvw4URRTZMDJZ-6">
          <mxGeometry width="50" height="50" relative="1" as="geometry">
            <mxPoint x="589" y="480" as="sourcePoint" />
            <mxPoint x="509" y="480" as="targetPoint" />
          </mxGeometry>
        </mxCell>
        <mxCell id="3cb6sZNOvw4URRTZMDJZ-18" value="N:M" style="edgeLabel;html=1;align=center;verticalAlign=middle;resizable=0;points=[];" vertex="1" connectable="0" parent="3cb6sZNOvw4URRTZMDJZ-12">
          <mxGeometry x="0.05" relative="1" as="geometry">
            <mxPoint x="3" as="offset" />
          </mxGeometry>
        </mxCell>
        <mxCell id="3cb6sZNOvw4URRTZMDJZ-24" value="" style="edgeStyle=orthogonalEdgeStyle;rounded=0;orthogonalLoop=1;jettySize=auto;html=1;" edge="1" parent="1" source="3cb6sZNOvw4URRTZMDJZ-19" target="3cb6sZNOvw4URRTZMDJZ-23">
          <mxGeometry relative="1" as="geometry" />
        </mxCell>
        <mxCell id="3cb6sZNOvw4URRTZMDJZ-59" value="N:M" style="edgeLabel;html=1;align=center;verticalAlign=middle;resizable=0;points=[];" vertex="1" connectable="0" parent="3cb6sZNOvw4URRTZMDJZ-24">
          <mxGeometry x="-0.04" y="1" relative="1" as="geometry">
            <mxPoint as="offset" />
          </mxGeometry>
        </mxCell>
        <mxCell id="3cb6sZNOvw4URRTZMDJZ-19" value="Puede_estar_en" style="rhombus;whiteSpace=wrap;html=1;" vertex="1" parent="1">
          <mxGeometry x="-30" y="440" width="120" height="90" as="geometry" />
        </mxCell>
        <mxCell id="3cb6sZNOvw4URRTZMDJZ-38" value="" style="edgeStyle=orthogonalEdgeStyle;rounded=0;orthogonalLoop=1;jettySize=auto;html=1;" edge="1" parent="1" source="3cb6sZNOvw4URRTZMDJZ-23" target="3cb6sZNOvw4URRTZMDJZ-37">
          <mxGeometry relative="1" as="geometry" />
        </mxCell>
        <mxCell id="3cb6sZNOvw4URRTZMDJZ-66" value="N:M" style="edgeLabel;html=1;align=center;verticalAlign=middle;resizable=0;points=[];" vertex="1" connectable="0" parent="3cb6sZNOvw4URRTZMDJZ-38">
          <mxGeometry x="0.0667" y="-1" relative="1" as="geometry">
            <mxPoint as="offset" />
          </mxGeometry>
        </mxCell>
        <mxCell id="3cb6sZNOvw4URRTZMDJZ-23" value="Promoción" style="whiteSpace=wrap;html=1;" vertex="1" parent="1">
          <mxGeometry x="-200" y="455" width="120" height="60" as="geometry" />
        </mxCell>
        <mxCell id="3cb6sZNOvw4URRTZMDJZ-27" value="Distribudor" style="rounded=0;whiteSpace=wrap;html=1;" vertex="1" parent="1">
          <mxGeometry x="-200" y="190" width="120" height="60" as="geometry" />
        </mxCell>
        <mxCell id="3cb6sZNOvw4URRTZMDJZ-31" value="" style="edgeStyle=orthogonalEdgeStyle;rounded=0;orthogonalLoop=1;jettySize=auto;html=1;entryX=0.5;entryY=0;entryDx=0;entryDy=0;" edge="1" parent="1" source="3cb6sZNOvw4URRTZMDJZ-28" target="3cb6sZNOvw4URRTZMDJZ-33">
          <mxGeometry x="1" y="192" relative="1" as="geometry">
            <mxPoint x="230" y="595" as="targetPoint" />
            <mxPoint x="-2" y="30" as="offset" />
          </mxGeometry>
        </mxCell>
        <mxCell id="3cb6sZNOvw4URRTZMDJZ-64" value="1:N" style="edgeLabel;html=1;align=center;verticalAlign=middle;resizable=0;points=[];" vertex="1" connectable="0" parent="3cb6sZNOvw4URRTZMDJZ-31">
          <mxGeometry x="0.1111" y="1" relative="1" as="geometry">
            <mxPoint as="offset" />
          </mxGeometry>
        </mxCell>
        <mxCell id="3cb6sZNOvw4URRTZMDJZ-36" value="" style="edgeStyle=orthogonalEdgeStyle;rounded=0;orthogonalLoop=1;jettySize=auto;html=1;" edge="1" parent="1" source="3cb6sZNOvw4URRTZMDJZ-28" target="3cb6sZNOvw4URRTZMDJZ-19">
          <mxGeometry relative="1" as="geometry" />
        </mxCell>
        <mxCell id="3cb6sZNOvw4URRTZMDJZ-58" value="N:M" style="edgeLabel;html=1;align=center;verticalAlign=middle;resizable=0;points=[];" vertex="1" connectable="0" parent="3cb6sZNOvw4URRTZMDJZ-36">
          <mxGeometry x="-0.075" y="1" relative="1" as="geometry">
            <mxPoint as="offset" />
          </mxGeometry>
        </mxCell>
        <mxCell id="3cb6sZNOvw4URRTZMDJZ-28" value="Producto" style="whiteSpace=wrap;html=1;" vertex="1" parent="1">
          <mxGeometry x="170" y="455" width="120" height="60" as="geometry" />
        </mxCell>
        <mxCell id="3cb6sZNOvw4URRTZMDJZ-35" value="" style="edgeStyle=orthogonalEdgeStyle;rounded=0;orthogonalLoop=1;jettySize=auto;html=1;" edge="1" parent="1" source="3cb6sZNOvw4URRTZMDJZ-33" target="3cb6sZNOvw4URRTZMDJZ-34">
          <mxGeometry relative="1" as="geometry" />
        </mxCell>
        <mxCell id="3cb6sZNOvw4URRTZMDJZ-69" value="1:N" style="edgeLabel;html=1;align=center;verticalAlign=middle;resizable=0;points=[];" vertex="1" connectable="0" parent="3cb6sZNOvw4URRTZMDJZ-35">
          <mxGeometry x="-0.15" y="-1" relative="1" as="geometry">
            <mxPoint as="offset" />
          </mxGeometry>
        </mxCell>
        <mxCell id="3cb6sZNOvw4URRTZMDJZ-33" value="Tienen" style="rhombus;whiteSpace=wrap;html=1;" vertex="1" parent="1">
          <mxGeometry x="190" y="550" width="80" height="80" as="geometry" />
        </mxCell>
        <mxCell id="3cb6sZNOvw4URRTZMDJZ-34" value="Modelo" style="whiteSpace=wrap;html=1;" vertex="1" parent="1">
          <mxGeometry x="170" y="670" width="120" height="60" as="geometry" />
        </mxCell>
        <mxCell id="3cb6sZNOvw4URRTZMDJZ-39" value="" style="edgeStyle=orthogonalEdgeStyle;rounded=0;orthogonalLoop=1;jettySize=auto;html=1;" edge="1" parent="1" source="3cb6sZNOvw4URRTZMDJZ-37" target="3cb6sZNOvw4URRTZMDJZ-27">
          <mxGeometry relative="1" as="geometry" />
        </mxCell>
        <mxCell id="3cb6sZNOvw4URRTZMDJZ-67" value="N:M" style="edgeLabel;html=1;align=center;verticalAlign=middle;resizable=0;points=[];" vertex="1" connectable="0" parent="3cb6sZNOvw4URRTZMDJZ-39">
          <mxGeometry x="0.4" relative="1" as="geometry">
            <mxPoint y="12" as="offset" />
          </mxGeometry>
        </mxCell>
        <mxCell id="3cb6sZNOvw4URRTZMDJZ-37" value="Impulsada_por" style="rhombus;whiteSpace=wrap;html=1;" vertex="1" parent="1">
          <mxGeometry x="-187.5" y="290" width="95" height="100" as="geometry" />
        </mxCell>
        <mxCell id="3cb6sZNOvw4URRTZMDJZ-44" value="&lt;ul&gt;&lt;li&gt;ID_Modelo&amp;nbsp;&lt;/li&gt;&lt;li&gt;Nombre_Modelo&lt;/li&gt;&lt;li&gt;Especificaciones_Tecnicas&lt;/li&gt;&lt;/ul&gt;" style="text;html=1;align=left;verticalAlign=middle;whiteSpace=wrap;rounded=0;" vertex="1" parent="1">
          <mxGeometry x="270" y="685" width="60" height="30" as="geometry" />
        </mxCell>
        <mxCell id="3cb6sZNOvw4URRTZMDJZ-48" value="&lt;ul&gt;&lt;li&gt;ID_Fabricante&lt;/li&gt;&lt;li&gt;Nombre_Fabricante&lt;/li&gt;&lt;li&gt;Certificación_ISO&lt;/li&gt;&lt;/ul&gt;" style="text;html=1;align=left;verticalAlign=middle;whiteSpace=wrap;rounded=0;" vertex="1" parent="1">
          <mxGeometry x="660" y="470" width="60" height="30" as="geometry" />
        </mxCell>
        <mxCell id="3cb6sZNOvw4URRTZMDJZ-50" value="&lt;ul&gt;&lt;li&gt;ID_Producto&lt;/li&gt;&lt;li&gt;Nombre&lt;/li&gt;&lt;li&gt;Categoría&lt;/li&gt;&lt;/ul&gt;" style="text;html=1;align=left;verticalAlign=middle;resizable=0;points=[];autosize=1;strokeColor=none;fillColor=none;" vertex="1" parent="1">
          <mxGeometry x="165" y="390" width="130" height="80" as="geometry" />
        </mxCell>
        <mxCell id="3cb6sZNOvw4URRTZMDJZ-52" value="&lt;ul&gt;&lt;li&gt;ID_Promocion&lt;/li&gt;&lt;li&gt;Fecha_Inicio&lt;/li&gt;&lt;li&gt;Fecha_Final&lt;/li&gt;&lt;li&gt;Vigente&lt;/li&gt;&lt;/ul&gt;" style="text;html=1;align=center;verticalAlign=middle;resizable=0;points=[];autosize=1;strokeColor=none;fillColor=none;" vertex="1" parent="1">
          <mxGeometry x="-350" y="443" width="140" height="100" as="geometry" />
        </mxCell>
        <mxCell id="3cb6sZNOvw4URRTZMDJZ-53" value="&lt;ul&gt;&lt;li&gt;ID_Distribuidor&lt;/li&gt;&lt;li&gt;Nombre&lt;/li&gt;&lt;li&gt;Región&lt;/li&gt;&lt;/ul&gt;" style="text;html=1;align=left;verticalAlign=middle;resizable=0;points=[];autosize=1;strokeColor=none;fillColor=none;" vertex="1" parent="1">
          <mxGeometry x="-210" y="120" width="140" height="80" as="geometry" />
        </mxCell>
      </root>
    </mxGraphModel>
  </diagram>
</mxfile>
